<?xml version="1.0" standalone="no"?>
<!DOCTYPE svg PUBLIC "-//W3C//DTD SVG 20010904//EN"
 "http://www.w3.org/TR/2001/REC-SVG-20010904/DTD/svg10.dtd">
<svg version="1.0" xmlns="http://www.w3.org/2000/svg"
 width="265.000000pt" height="200.000000pt" viewBox="0 0 265.000000 200.000000"
 preserveAspectRatio="xMidYMid meet">

<g transform="translate(0.000000,200.000000) scale(0.100000,-0.100000)"
fill="#000000" stroke="none">
<path d="M110 1920 c0 -5 15 -10 34 -10 23 0 45 -9 66 -26 59 -50 60 -56 60
-364 l0 -280 65 0 65 0 2 313 3 312 165 0 c189 0 217 -9 283 -86 47 -54 68
-115 74 -220 l6 -86 -44 -25 c-59 -35 -102 -82 -133 -144 -30 -61 -31 -64 -11
-64 8 0 15 4 15 9 0 24 134 151 146 138 11 -10 -25 -64 -70 -105 l-46 -42 93
0 92 0 34 50 c19 27 42 73 52 102 16 47 21 53 48 56 l31 3 0 -105 0 -106 130
0 130 0 0 106 0 106 158 -4 c148 -3 160 -5 214 -31 56 -28 140 -108 161 -154
10 -22 15 -23 139 -23 88 0 128 4 128 11 0 6 -35 46 -78 88 -83 82 -159 127
-267 156 -82 22 -394 38 -595 31 l-166 -6 -11 79 c-7 45 -23 102 -38 131 -49
96 -148 168 -264 190 -71 13 -671 13 -671 0z"/>
<path d="M2492 1174 c-24 -17 -30 -62 -10 -82 7 -7 24 -12 38 -12 33 0 50 17
50 51 0 24 -30 59 -50 59 -3 0 -16 -7 -28 -16z"/>
<path d="M381 1133 c1 -34 3 -41 8 -25 l6 24 19 -21 c11 -12 24 -21 29 -21 6
0 3 8 -6 18 -12 14 -14 21 -6 29 18 18 2 43 -26 43 -23 0 -25 -3 -24 -47z m42
22 c1 -5 -6 -11 -15 -13 -11 -2 -18 3 -18 13 0 17 30 18 33 0z"/>
<path d="M570 1160 c-15 -29 -3 -59 26 -66 41 -11 65 25 48 70 -9 24 -61 21
-74 -4z m64 -6 c5 -14 -8 -54 -19 -54 -28 0 -48 44 -28 63 12 13 41 7 47 -9z"/>
<path d="M772 1133 c1 -37 2 -40 5 -15 5 40 14 40 36 2 25 -42 37 -37 37 15 0
25 -4 45 -10 45 -5 0 -10 -12 -10 -27 l-1 -28 -22 28 c-13 15 -26 27 -30 27
-4 0 -6 -21 -5 -47z"/>
<path d="M981 1138 c-10 -24 -16 -45 -13 -48 2 -3 7 1 9 8 5 14 53 17 53 2 0
-5 4 -10 10 -10 5 0 2 20 -8 45 -9 25 -20 45 -25 45 -4 0 -16 -19 -26 -42z
m39 -4 c0 -8 -7 -14 -15 -14 -17 0 -18 2 -9 24 7 18 24 12 24 -10z"/>
<path d="M1160 1135 c0 -43 1 -45 28 -44 16 1 20 3 10 6 -13 3 -18 15 -18 44
0 21 -4 39 -10 39 -5 0 -10 -20 -10 -45z"/>
<path d="M1330 1136 c0 -41 2 -46 23 -46 37 0 59 22 55 55 -3 27 -7 30 -40 33
l-38 3 0 -45z m67 18 c8 -20 -8 -48 -31 -52 -12 -3 -16 4 -16 32 0 30 4 36 20
36 11 0 23 -7 27 -16z"/>
<path d="M1670 1135 c0 -41 2 -45 24 -45 45 0 72 50 44 78 -7 7 -25 12 -40 12
-27 0 -28 -2 -28 -45z m60 16 c7 -15 6 -24 -6 -36 -23 -22 -38 -14 -42 23 -3
27 0 32 17 32 11 0 25 -9 31 -19z"/>
<path d="M1870 1135 c0 -44 1 -45 33 -44 29 1 29 2 8 8 -36 10 -38 31 -4 32
27 1 27 1 4 8 -35 9 -37 29 -4 34 27 4 27 4 -4 6 -33 1 -33 0 -33 -44z"/>
<path d="M2053 1138 c7 -23 17 -43 23 -45 11 -4 48 77 39 85 -2 2 -11 -13 -21
-34 l-17 -39 -9 38 c-6 20 -14 37 -18 37 -5 0 -3 -19 3 -42z"/>
<path d="M270 798 c0 -205 -2 -226 -20 -256 -24 -39 -75 -72 -112 -72 -16 0
-28 -4 -28 -10 0 -6 84 -10 231 -10 151 0 228 3 224 10 -3 6 -18 10 -33 10
-35 0 -86 31 -109 67 -16 24 -18 56 -21 255 l-3 228 -65 0 -64 0 0 -222z"/>
<path d="M660 1015 c0 -2 108 -124 240 -270 179 -198 240 -273 240 -291 0 -55
-45 -103 -97 -104 -18 0 -33 -4 -33 -10 0 -6 50 -10 130 -10 l131 0 90 -75
c166 -138 307 -191 484 -182 55 3 108 8 118 12 35 14 15 25 -47 25 -120 0
-245 56 -375 166 l-60 51 147 6 c81 3 176 13 212 22 144 35 281 127 350 235
60 93 82 171 88 308 l5 122 -139 0 -139 0 -1 -113 c-3 -236 -89 -404 -242
-475 -52 -24 -70 -27 -209 -30 l-153 -4 0 311 0 311 -130 0 -130 0 -2 -169 -3
-169 -153 169 -154 169 -84 0 c-46 0 -84 -2 -84 -5z"/>
<path d="M2482 848 c-16 -16 -15 -50 3 -74 20 -26 19 -63 -2 -87 -18 -20 -17
-20 12 -13 68 16 107 105 71 161 -18 27 -63 34 -84 13z"/>
</g>
</svg>
